<svg width="53" height="30" viewBox="0 0 198 112" fill="none" xmlns="http://www.w3.org/2000/svg">
  <path
    d="M51.6114 12.2345V8.46984H64.7488V40.4698H46.9194C39.8815 12.7058 11.7299 31.0587 28.6209 40.4698C60.9953 50.8228 68.0332 53.1757 69.91 71.9993C69.91 100.705 41.2891 106.352 14.0758 95.9992V100.705H0V68.7051H19.7062C23.1538 97.0418 60.5261 75.294 41.2891 64.4705C35.1896 60.2352 1.87678 60.7058 1.87678 34.3522C3.06236 13.0807 21.1137 -1.41185 51.6114 12.2345Z"
    fill="white"></path>
  <path
    d="M66.1564 22.5881L94.7773 10.3529V3.76471L101.815 8.46984L142.166 0L150.142 5.64706L106.507 18.3529L105.569 31.5294L130.905 22.5882L131.844 31.5294L105.1 38.5882L102.284 87.5294L80.2322 112L89.6161 42.3529L76.0095 45.1765L91.0237 37.1765L92.4313 20.2353L66.6256 24.4706L66.1564 22.5881Z"
    fill="white"></path>
  <path
    d="M151.081 7.52941L174.071 13.1765C162.81 20.7059 149.673 45.6471 149.673 45.6471C127.621 83.7647 130.905 86.5882 164.687 75.2941L156.711 104.471L136.066 107.294L127.621 81.8823L151.081 7.52941Z"
    fill="url(#paint0_linear_4062_2)"></path>
  <path
    d="M180.171 13.1765L195.654 17.8824L198 100.706L162.341 105.412L175.479 91.2941L180.171 71.0588C195.654 64 200.346 48 182.517 54.1177C194.505 23.7749 192.843 22.206 178.763 40L176.417 41.8824L169.379 57.4118L155.773 61.6471C170.097 35.7851 178.696 20.4646 180.171 13.1765Z"
    fill="url(#paint1_linear_4062_2)"></path>
  <path
    d="M108.853 51.7647H118.237L120.114 44.2353L121.991 51.7647H131.374L124.806 56.4706V59.2941L127.621 65.8824L120.114 60.2353L112.607 65.8824L115.422 59.2941V56.4706L108.853 51.7647Z"
    fill="white"></path>
  <defs>
    <linearGradient
      id="paint0_linear_4062_2"
      x1="99.2346"
      y1="0"
      x2="99.2346"
      y2="112"
      gradientUnits="userSpaceOnUse"
    >
      <stop stop-color="#B80202"></stop>
      <stop offset="0.2" stop-color="#F10809"></stop>
      <stop offset="0.8" stop-color="#F10809"></stop>
      <stop offset="1" stop-color="#B80202"></stop>
    </linearGradient>
    <linearGradient
      id="paint1_linear_4062_2"
      x1="99.2346"
      y1="0"
      x2="99.2346"
      y2="112"
      gradientUnits="userSpaceOnUse"
    >
      <stop stop-color="#B80202"></stop>
      <stop offset="0.2" stop-color="#F10809"></stop>
      <stop offset="0.8" stop-color="#F10809"></stop>
      <stop offset="1" stop-color="#B80202"></stop>
    </linearGradient>
  </defs>
</svg>
