<svg width="742" height="126" viewBox="0 0 742 126" fill="none" xmlns="http://www.w3.org/2000/svg">
<path d="M361 0V1L360 2H357L356 3H355L354 4H353V5L352 6V9L351 10H350L349 11H347V13L346 14L345 13H344L343 14L341 12V15L339 17V18L337 20H336L335 21H334V22L332 24H331L330 25H328L327 26H325V28L324 29H323L322 30H321L318 27V26H310L309 27L308 26L307 27H305L304 26H301L300 25H297L296 26H295L294 25H292L291 24H290L288 22H287L285 20L284 21H282L281 22H280L279 23H278L277 22H273L272 21H271L270 20L269 21H266L265 22H264L263 21H262V22L261 23H260L259 24H258L257 23H256L255 22V21H254L253 22L252 21H250L248 19L249 18L247 16V14L248 13V11L249 10H250L249 9L250 8H249L248 7V6H246L245 5H244L243 4V3L242 2H238L237 1H235L234 2H233L232 1V3L231 4H229L228 5L227 6H226L225 7H224L223 8H222L221 7V5H218L216 7H215L214 8L215 9L214 10H213L212 11L211 10L210 11H208L206 9V8L207 7L205 9H204V10L203 11L202 10H200L199 11H197L195 13H193L191 15H188L187 14H186L185 13V14L184 15H182L181 14H180L179 13L178 14L176 12V11L175 10H174L173 9V8L172 9H170L169 8L168 9H166L165 8L164 9L163 8H161L160 9H158L157 8V7H156L155 6V7L154 8L153 7L151 9L150 8L149 9L148 8H146V9L145 10H144L141 13H139L138 12H137L136 11L133 14H132L130 12L129 13L128 12V10L126 8V7L125 8H124L123 7H122L123 8L120 11H119L118 12H117L116 13L115 12V13L113 15H112L111 16H110L109 17H108L106 19V20L105 21V23L104 24L103 23L102 24L103 25V26L102 27L101 26V27L99 29L98 28V27V29L97 30H88L87 29H86L85 28L86 27H85L84 28H83L82 27L81 26H80L79 27H78L77 26V25L76 26L74 24H70L67 21V20H65L64 21H62L61 20H60L59 19L58 20H56L54 22H53L52 23H51L50 24V25L48 27L47 26V27L46 28H45L44 29H41L40 30H39L38 31H36L37 32L36 33V35L35 36H34L33 37V38L32 39V40L31 41V42L30 43H20L18 45H14L13 44H11L9 42V41H8L7 40H6L5 39L4 40L3 39H2L1 38H0V126H742V31H741L740 30L739 31H736L735 30V29L734 30H733L732 29V30L731 31L730 30H726L725 29H717L716 28V27H715L714 26V24H713L712 23H709L708 22H705L704 21H703L702 20L701 21H699L698 22H697L695 24L694 23H692V26L690 28H689L687 30L686 29V28H685L684 27H680L679 26V25L678 26H673L672 25L670 27H667L666 28H658L657 27L656 28H651L650 29H648L647 30H646L645 31H644V32L642 34H640V35L639 36H638L635 33H634L633 32H628L624 36H620L619 35H617L616 34H610L609 33H607L606 32L607 31L605 33H603L602 34H598L597 35H596L595 34L594 33H592L588 29H585L584 30H583L582 29V30L581 31L580 30H577L575 28V27H574L573 26H572L571 25L572 24L571 23H569L568 24H565L564 23H560L559 24V25L557 27H553L552 26H551L550 27H548L546 29V30L545 31H542L541 30H538L537 29H535L534 28H533L532 27H531L530 26H529L521 18H520L518 16H515L514 15H512L510 13L511 12H512L513 11V7L512 6V5L511 4V1L506 6V10L505 11L504 12V13L503 14H498L497 15H495L494 14L492 16H490L488 18H482L481 19L480 18H475L474 17H470V18L469 19H462L461 18L460 19L459 18L458 19L457 18H455L454 17H451L450 16H448L447 15H446L445 16H441L440 17H435L433 15L434 14H433L432 13L431 14H429L428 13H427L426 12V11L425 10H420L419 9H417L416 8L417 7V6H415L414 7H412L411 8H410L409 7H407L406 6H399V7L398 8H395L394 7H392L390 5L389 6L387 4H386L385 5H382L381 4V1H377L376 2L375 1H372L370 3H365L364 2H363L361 0Z" fill="#9A0000"/>
</svg>
