<svg width="250" height="250" viewBox="0 0 250 250" fill="none" xmlns="http://www.w3.org/2000/svg">
<rect width="250" height="250" rx="125" fill="black"/>
<path d="M77.6114 81.2345V77.4698H90.7488V109.47H72.9194C65.8815 81.7058 37.7299 100.059 54.6209 109.47C86.9953 119.823 94.0332 122.176 95.91 140.999C95.91 169.705 67.2891 175.352 40.0758 164.999V169.705H26V137.705H45.7062C49.1538 166.042 86.5261 144.294 67.2891 133.471C61.1896 129.235 27.8768 129.706 27.8768 103.352C29.0624 82.0807 47.1137 67.5881 77.6114 81.2345Z" fill="white"/>
<path d="M92.1564 91.5881L120.777 79.3529V72.7647L127.815 77.4698L168.166 69L176.142 74.6471L132.507 87.3529L131.569 100.529L156.905 91.5882L157.844 100.529L131.1 107.588L128.284 156.529L106.232 181L115.616 111.353L102.009 114.176L117.024 106.176L118.431 89.2353L92.6256 93.4706L92.1564 91.5881Z" fill="white"/>
<path d="M177.081 76.5294L200.071 82.1765C188.81 89.7059 175.673 114.647 175.673 114.647C153.621 152.765 156.905 155.588 190.687 144.294L182.711 173.471L162.066 176.294L153.621 150.882L177.081 76.5294Z" fill="url(#paint0_linear_3948_4)"/>
<path d="M206.171 82.1765L221.654 86.8824L224 169.706L188.341 174.412L201.479 160.294L206.171 140.059C221.654 133 226.346 117 208.517 123.118C220.505 92.7749 218.843 91.206 204.763 109L202.417 110.882L195.379 126.412L181.773 130.647C196.097 104.785 204.696 89.4646 206.171 82.1765Z" fill="url(#paint1_linear_3948_4)"/>
<path d="M134.853 120.765H144.237L146.114 113.235L147.991 120.765H157.374L150.806 125.471V128.294L153.621 134.882L146.114 129.235L138.607 134.882L141.422 128.294V125.471L134.853 120.765Z" fill="white"/>
<defs>
<linearGradient id="paint0_linear_3948_4" x1="125.235" y1="69" x2="125.235" y2="181" gradientUnits="userSpaceOnUse">
<stop stop-color="#B80202"/>
<stop offset="0.2" stop-color="#F10809"/>
<stop offset="0.8" stop-color="#F10809"/>
<stop offset="1" stop-color="#B80202"/>
</linearGradient>
<linearGradient id="paint1_linear_3948_4" x1="125.235" y1="69" x2="125.235" y2="181" gradientUnits="userSpaceOnUse">
<stop stop-color="#B80202"/>
<stop offset="0.2" stop-color="#F10809"/>
<stop offset="0.8" stop-color="#F10809"/>
<stop offset="1" stop-color="#B80202"/>
</linearGradient>
</defs>
</svg>
